<svg width="1080" height="56" viewBox="0 0 1080 56" fill="none" xmlns="http://www.w3.org/2000/svg">
<path d="M17.3613 8.00222C17.3613 8.56197 17.3231 9.11061 17.2466 9.6526C17.0131 11.3563 16.425 12.9756 15.5332 14.4482C12.7264 19.1151 6.97254 22.3536 0.318478 22.4514C0.212319 22.4558 0.106159 22.4558 0 22.4558C6.56065 22.4558 12.6032 24.5327 17.3762 28C20.4038 25.7988 22.9219 23.04 24.7372 19.8947C25.9793 17.7512 26.8965 15.4278 27.421 12.9733C27.7776 11.363 27.9602 9.69925 27.9602 8H17.3613V8.00222Z" fill="white"/>
<path d="M13.1231 8.0022H0.00390625V18.02C7.11446 18.0177 13.1231 13.4309 13.1231 8.0022Z" fill="white"/>
<path d="M0 37.98V47.9978H13.1192C13.1192 42.5691 7.11055 37.98 0 37.98Z" fill="white"/>
<path d="M17.3762 28C12.6011 24.5304 6.55852 22.4558 0 22.4558V33.5464C9.57133 33.5464 17.3592 40.028 17.3592 48H27.9602C27.9602 39.9058 23.8222 32.6846 17.3762 28Z" fill="white"/>
<path d="M37.9609 17.0405H44.8698V25.8544V26.9983C44.8698 27.5892 44.787 28.4133 44.6235 29.4683C44.9526 28.6576 45.1925 28.0978 45.3454 27.7913C45.4983 27.4848 45.7976 26.9872 46.2435 26.2986L52.3073 17.0427H60.3096L51.1098 29.8393L60.9444 43.6287H52.5897L46.1395 33.782L45.4346 32.8224C45.2222 32.4781 44.9993 31.9739 44.7657 31.3097L44.8719 34.2595V43.6287H37.9631V17.0405H37.9609Z" fill="white"/>
<path d="M65.4202 16.1543C66.4541 16.1543 67.348 16.5208 68.0996 17.256C68.8512 17.989 69.227 18.8575 69.227 19.8615C69.227 20.89 68.8618 21.7585 68.1336 22.4671C67.4053 23.1778 66.5009 23.531 65.4202 23.531C64.3628 23.531 63.4647 23.1712 62.7237 22.4493C61.9827 21.7274 61.6133 20.8655 61.6133 19.8615C61.6133 18.8598 61.9891 17.9913 62.7407 17.256C63.4923 16.5208 64.3862 16.1543 65.4202 16.1543Z" fill="white"/>
<path d="M68.6609 25.7056H62.1406V43.6265H68.6609V25.7056Z" fill="white"/>
<path d="M71.7578 16.1121H78.3503L78.2102 28.2489C79.5032 26.1831 81.3355 25.1503 83.7092 25.1503C85.894 25.1503 87.7284 26.061 89.2083 27.8802C90.6881 29.6994 91.4291 31.9606 91.4291 34.666C91.4291 37.3937 90.6945 39.6505 89.2253 41.4319C87.756 43.2156 85.9067 44.1063 83.6731 44.1063C82.4268 44.1063 81.2994 43.7975 80.2888 43.1845C79.2781 42.5692 78.5265 41.7451 78.0318 40.7145V43.6287H71.7578V16.1121ZM77.9278 34.6305C77.9278 35.7611 78.2505 36.6896 78.8981 37.4137C79.5435 38.1401 80.3843 38.5021 81.4183 38.5021C82.4289 38.5021 83.2634 38.1334 83.9215 37.3959C84.5797 36.6585 84.9088 35.7256 84.9088 34.5927C84.9088 33.4866 84.5797 32.5648 83.9215 31.8273C83.2634 31.0899 82.4289 30.7211 81.4183 30.7211C80.431 30.7211 79.603 31.0965 78.9342 31.8451C78.2611 32.5959 77.9278 33.5243 77.9278 34.6305Z" fill="white"/>
<path d="M96.1897 16.1543C97.2237 16.1543 98.1175 16.5208 98.8691 17.256C99.6208 17.989 99.9966 18.8575 99.9966 19.8615C99.9966 20.89 99.6314 21.7585 98.9031 22.4671C98.1749 23.1778 97.2704 23.531 96.1897 23.531C95.1323 23.531 94.2342 23.1712 93.4932 22.4493C92.7522 21.7274 92.3828 20.8655 92.3828 19.8615C92.3828 18.8598 92.7586 17.9913 93.5102 17.256C94.264 16.5208 95.1557 16.1543 96.1897 16.1543Z" fill="white"/>
<path d="M99.4344 25.7056H92.9141V43.6265H99.4344V25.7056Z" fill="white"/>
<path d="M782.848 34L779.968 28.996H778.402V34H776.35V21.49H780.67C781.63 21.49 782.44 21.658 783.1 21.994C783.772 22.33 784.27 22.78 784.594 23.344C784.93 23.908 785.098 24.538 785.098 25.234C785.098 26.05 784.858 26.794 784.378 27.466C783.91 28.126 783.184 28.576 782.2 28.816L785.296 34H782.848ZM778.402 27.358H780.67C781.438 27.358 782.014 27.166 782.398 26.782C782.794 26.398 782.992 25.882 782.992 25.234C782.992 24.586 782.8 24.082 782.416 23.722C782.032 23.35 781.45 23.164 780.67 23.164H778.402V27.358ZM796.813 28.798C796.813 29.17 796.789 29.506 796.741 29.806H789.163C789.223 30.598 789.517 31.234 790.045 31.714C790.573 32.194 791.221 32.434 791.989 32.434C793.093 32.434 793.873 31.972 794.329 31.048H796.543C796.243 31.96 795.697 32.71 794.905 33.298C794.125 33.874 793.153 34.162 791.989 34.162C791.041 34.162 790.189 33.952 789.433 33.532C788.689 33.1 788.101 32.5 787.669 31.732C787.249 30.952 787.039 30.052 787.039 29.032C787.039 28.012 787.243 27.118 787.651 26.35C788.071 25.57 788.653 24.97 789.397 24.55C790.153 24.13 791.017 23.92 791.989 23.92C792.925 23.92 793.759 24.124 794.491 24.532C795.223 24.94 795.793 25.516 796.201 26.26C796.609 26.992 796.813 27.838 796.813 28.798ZM794.671 28.15C794.659 27.394 794.389 26.788 793.861 26.332C793.333 25.876 792.679 25.648 791.899 25.648C791.191 25.648 790.585 25.876 790.081 26.332C789.577 26.776 789.277 27.382 789.181 28.15H794.671ZM798.148 28.996C798.148 28 798.352 27.118 798.76 26.35C799.18 25.582 799.744 24.988 800.452 24.568C801.172 24.136 801.97 23.92 802.846 23.92C803.614 23.92 804.292 24.076 804.88 24.388C805.48 24.7 805.942 25.078 806.266 25.522V24.082H808.336V38.716H806.266V32.56C805.942 33.004 805.474 33.382 804.862 33.694C804.25 34.006 803.554 34.162 802.774 34.162C801.922 34.162 801.142 33.946 800.434 33.514C799.738 33.07 799.18 32.458 798.76 31.678C798.352 30.886 798.148 29.992 798.148 28.996ZM806.266 29.032C806.266 28.348 806.122 27.754 805.834 27.25C805.558 26.746 805.192 26.362 804.736 26.098C804.28 25.834 803.788 25.702 803.26 25.702C802.732 25.702 802.24 25.834 801.784 26.098C801.328 26.35 800.956 26.728 800.668 27.232C800.392 27.724 800.254 28.312 800.254 28.996C800.254 29.68 800.392 30.28 800.668 30.796C800.956 31.312 801.328 31.708 801.784 31.984C802.252 32.248 802.744 32.38 803.26 32.38C803.788 32.38 804.28 32.248 804.736 31.984C805.192 31.72 805.558 31.336 805.834 30.832C806.122 30.316 806.266 29.716 806.266 29.032ZM820.014 24.082V34H817.962V32.83C817.638 33.238 817.212 33.562 816.684 33.802C816.168 34.03 815.616 34.144 815.028 34.144C814.248 34.144 813.546 33.982 812.922 33.658C812.31 33.334 811.824 32.854 811.464 32.218C811.116 31.582 810.942 30.814 810.942 29.914V24.082H812.976V29.608C812.976 30.496 813.198 31.18 813.642 31.66C814.086 32.128 814.692 32.362 815.46 32.362C816.228 32.362 816.834 32.128 817.278 31.66C817.734 31.18 817.962 30.496 817.962 29.608V24.082H820.014ZM831.811 28.798C831.811 29.17 831.787 29.506 831.739 29.806H824.161C824.221 30.598 824.515 31.234 825.043 31.714C825.571 32.194 826.219 32.434 826.987 32.434C828.091 32.434 828.871 31.972 829.327 31.048H831.541C831.241 31.96 830.695 32.71 829.903 33.298C829.123 33.874 828.151 34.162 826.987 34.162C826.039 34.162 825.187 33.952 824.431 33.532C823.687 33.1 823.099 32.5 822.667 31.732C822.247 30.952 822.037 30.052 822.037 29.032C822.037 28.012 822.241 27.118 822.649 26.35C823.069 25.57 823.651 24.97 824.395 24.55C825.151 24.13 826.015 23.92 826.987 23.92C827.923 23.92 828.757 24.124 829.489 24.532C830.221 24.94 830.791 25.516 831.199 26.26C831.607 26.992 831.811 27.838 831.811 28.798ZM829.669 28.15C829.657 27.394 829.387 26.788 828.859 26.332C828.331 25.876 827.677 25.648 826.897 25.648C826.189 25.648 825.583 25.876 825.079 26.332C824.575 26.776 824.275 27.382 824.179 28.15H829.669ZM837.43 34.162C836.65 34.162 835.948 34.024 835.324 33.748C834.712 33.46 834.226 33.076 833.866 32.596C833.506 32.104 833.314 31.558 833.29 30.958H835.414C835.45 31.378 835.648 31.732 836.008 32.02C836.38 32.296 836.842 32.434 837.394 32.434C837.97 32.434 838.414 32.326 838.726 32.11C839.05 31.882 839.212 31.594 839.212 31.246C839.212 30.874 839.032 30.598 838.672 30.418C838.324 30.238 837.766 30.04 836.998 29.824C836.254 29.62 835.648 29.422 835.18 29.23C834.712 29.038 834.304 28.744 833.956 28.348C833.62 27.952 833.452 27.43 833.452 26.782C833.452 26.254 833.608 25.774 833.92 25.342C834.232 24.898 834.676 24.55 835.252 24.298C835.84 24.046 836.512 23.92 837.268 23.92C838.396 23.92 839.302 24.208 839.986 24.784C840.682 25.348 841.054 26.122 841.102 27.106H839.05C839.014 26.662 838.834 26.308 838.51 26.044C838.186 25.78 837.748 25.648 837.196 25.648C836.656 25.648 836.242 25.75 835.954 25.954C835.666 26.158 835.522 26.428 835.522 26.764C835.522 27.028 835.618 27.25 835.81 27.43C836.002 27.61 836.236 27.754 836.512 27.862C836.788 27.958 837.196 28.084 837.736 28.24C838.456 28.432 839.044 28.63 839.5 28.834C839.968 29.026 840.37 29.314 840.706 29.698C841.042 30.082 841.216 30.592 841.228 31.228C841.228 31.792 841.072 32.296 840.76 32.74C840.448 33.184 840.004 33.532 839.428 33.784C838.864 34.036 838.198 34.162 837.43 34.162ZM845.84 25.756V31.246C845.84 31.618 845.924 31.888 846.092 32.056C846.272 32.212 846.572 32.29 846.992 32.29H848.252V34H846.632C845.708 34 845 33.784 844.508 33.352C844.016 32.92 843.77 32.218 843.77 31.246V25.756H842.6V24.082H843.77V21.616H845.84V24.082H848.252V25.756H845.84ZM858.905 21.49C860.237 21.49 861.401 21.748 862.397 22.264C863.405 22.768 864.179 23.5 864.719 24.46C865.271 25.408 865.547 26.518 865.547 27.79C865.547 29.062 865.271 30.166 864.719 31.102C864.179 32.038 863.405 32.758 862.397 33.262C861.401 33.754 860.237 34 858.905 34H854.819V21.49H858.905ZM858.905 32.326C860.369 32.326 861.491 31.93 862.271 31.138C863.051 30.346 863.441 29.23 863.441 27.79C863.441 26.338 863.051 25.204 862.271 24.388C861.491 23.572 860.369 23.164 858.905 23.164H856.871V32.326H858.905ZM876.67 28.798C876.67 29.17 876.646 29.506 876.598 29.806H869.02C869.08 30.598 869.374 31.234 869.902 31.714C870.43 32.194 871.078 32.434 871.846 32.434C872.95 32.434 873.73 31.972 874.186 31.048H876.4C876.1 31.96 875.554 32.71 874.762 33.298C873.982 33.874 873.01 34.162 871.846 34.162C870.898 34.162 870.046 33.952 869.29 33.532C868.546 33.1 867.958 32.5 867.526 31.732C867.106 30.952 866.896 30.052 866.896 29.032C866.896 28.012 867.1 27.118 867.508 26.35C867.928 25.57 868.51 24.97 869.254 24.55C870.01 24.13 870.874 23.92 871.846 23.92C872.782 23.92 873.616 24.124 874.348 24.532C875.08 24.94 875.65 25.516 876.058 26.26C876.466 26.992 876.67 27.838 876.67 28.798ZM874.528 28.15C874.516 27.394 874.246 26.788 873.718 26.332C873.19 25.876 872.536 25.648 871.756 25.648C871.048 25.648 870.442 25.876 869.938 26.332C869.434 26.776 869.134 27.382 869.038 28.15H874.528ZM890.696 23.92C891.476 23.92 892.172 24.082 892.784 24.406C893.408 24.73 893.894 25.21 894.242 25.846C894.602 26.482 894.782 27.25 894.782 28.15V34H892.748V28.456C892.748 27.568 892.526 26.89 892.082 26.422C891.638 25.942 891.032 25.702 890.264 25.702C889.496 25.702 888.884 25.942 888.428 26.422C887.984 26.89 887.762 27.568 887.762 28.456V34H885.728V28.456C885.728 27.568 885.506 26.89 885.062 26.422C884.618 25.942 884.012 25.702 883.244 25.702C882.476 25.702 881.864 25.942 881.408 26.422C880.964 26.89 880.742 27.568 880.742 28.456V34H878.69V24.082H880.742V25.216C881.078 24.808 881.504 24.49 882.02 24.262C882.536 24.034 883.088 23.92 883.676 23.92C884.468 23.92 885.176 24.088 885.8 24.424C886.424 24.76 886.904 25.246 887.24 25.882C887.54 25.282 888.008 24.808 888.644 24.46C889.28 24.1 889.964 23.92 890.696 23.92ZM901.695 34.162C900.759 34.162 899.913 33.952 899.157 33.532C898.401 33.1 897.807 32.5 897.375 31.732C896.943 30.952 896.727 30.052 896.727 29.032C896.727 28.024 896.949 27.13 897.393 26.35C897.837 25.57 898.443 24.97 899.211 24.55C899.979 24.13 900.837 23.92 901.785 23.92C902.733 23.92 903.591 24.13 904.359 24.55C905.127 24.97 905.733 25.57 906.177 26.35C906.621 27.13 906.843 28.024 906.843 29.032C906.843 30.04 906.615 30.934 906.159 31.714C905.703 32.494 905.079 33.1 904.287 33.532C903.507 33.952 902.643 34.162 901.695 34.162ZM901.695 32.38C902.223 32.38 902.715 32.254 903.171 32.002C903.639 31.75 904.017 31.372 904.305 30.868C904.593 30.364 904.737 29.752 904.737 29.032C904.737 28.312 904.599 27.706 904.323 27.214C904.047 26.71 903.681 26.332 903.225 26.08C902.769 25.828 902.277 25.702 901.749 25.702C901.221 25.702 900.729 25.828 900.273 26.08C899.829 26.332 899.475 26.71 899.211 27.214C898.947 27.706 898.815 28.312 898.815 29.032C898.815 30.1 899.085 30.928 899.625 31.516C900.177 32.092 900.867 32.38 901.695 32.38Z" fill="white"/>
<path d="M998.402 32.344H1002.63V34H996.35V21.49H998.402V32.344ZM1008.65 34.162C1007.71 34.162 1006.87 33.952 1006.11 33.532C1005.36 33.1 1004.76 32.5 1004.33 31.732C1003.9 30.952 1003.68 30.052 1003.68 29.032C1003.68 28.024 1003.9 27.13 1004.35 26.35C1004.79 25.57 1005.4 24.97 1006.17 24.55C1006.93 24.13 1007.79 23.92 1008.74 23.92C1009.69 23.92 1010.55 24.13 1011.31 24.55C1012.08 24.97 1012.69 25.57 1013.13 26.35C1013.58 27.13 1013.8 28.024 1013.8 29.032C1013.8 30.04 1013.57 30.934 1013.11 31.714C1012.66 32.494 1012.03 33.1 1011.24 33.532C1010.46 33.952 1009.6 34.162 1008.65 34.162ZM1008.65 32.38C1009.18 32.38 1009.67 32.254 1010.13 32.002C1010.59 31.75 1010.97 31.372 1011.26 30.868C1011.55 30.364 1011.69 29.752 1011.69 29.032C1011.69 28.312 1011.55 27.706 1011.28 27.214C1011 26.71 1010.64 26.332 1010.18 26.08C1009.72 25.828 1009.23 25.702 1008.7 25.702C1008.18 25.702 1007.68 25.828 1007.23 26.08C1006.78 26.332 1006.43 26.71 1006.17 27.214C1005.9 27.706 1005.77 28.312 1005.77 29.032C1005.77 30.1 1006.04 30.928 1006.58 31.516C1007.13 32.092 1007.82 32.38 1008.65 32.38ZM1019.82 23.92C1020.59 23.92 1021.27 24.076 1021.86 24.388C1022.46 24.688 1022.92 25.066 1023.26 25.522V24.082H1025.33V34.162C1025.33 35.074 1025.14 35.884 1024.75 36.592C1024.37 37.312 1023.81 37.876 1023.08 38.284C1022.36 38.692 1021.5 38.896 1020.49 38.896C1019.14 38.896 1018.03 38.578 1017.14 37.942C1016.25 37.318 1015.75 36.466 1015.63 35.386H1017.66C1017.82 35.902 1018.15 36.316 1018.65 36.628C1019.17 36.952 1019.78 37.114 1020.49 37.114C1021.32 37.114 1021.98 36.862 1022.49 36.358C1023 35.854 1023.26 35.122 1023.26 34.162V32.506C1022.91 32.974 1022.44 33.37 1021.84 33.694C1021.25 34.006 1020.58 34.162 1019.82 34.162C1018.96 34.162 1018.17 33.946 1017.45 33.514C1016.74 33.07 1016.17 32.458 1015.75 31.678C1015.35 30.886 1015.14 29.992 1015.14 28.996C1015.14 28 1015.35 27.118 1015.75 26.35C1016.17 25.582 1016.74 24.988 1017.45 24.568C1018.17 24.136 1018.96 23.92 1019.82 23.92ZM1023.26 29.032C1023.26 28.348 1023.12 27.754 1022.83 27.25C1022.55 26.746 1022.19 26.362 1021.73 26.098C1021.27 25.834 1020.78 25.702 1020.25 25.702C1019.73 25.702 1019.23 25.834 1018.78 26.098C1018.32 26.35 1017.95 26.728 1017.66 27.232C1017.39 27.724 1017.25 28.312 1017.25 28.996C1017.25 29.68 1017.39 30.28 1017.66 30.796C1017.95 31.312 1018.32 31.708 1018.78 31.984C1019.25 32.248 1019.74 32.38 1020.25 32.38C1020.78 32.38 1021.27 32.248 1021.73 31.984C1022.19 31.72 1022.55 31.336 1022.83 30.832C1023.12 30.316 1023.26 29.716 1023.26 29.032ZM1034.75 21.49V34H1032.7V21.49H1034.75ZM1042.45 23.92C1043.23 23.92 1043.93 24.082 1044.54 24.406C1045.16 24.73 1045.65 25.21 1046 25.846C1046.35 26.482 1046.52 27.25 1046.52 28.15V34H1044.49V28.456C1044.49 27.568 1044.26 26.89 1043.82 26.422C1043.38 25.942 1042.77 25.702 1042 25.702C1041.23 25.702 1040.62 25.942 1040.17 26.422C1039.72 26.89 1039.5 27.568 1039.5 28.456V34H1037.45V24.082H1039.5V25.216C1039.84 24.808 1040.26 24.49 1040.78 24.262C1041.31 24.034 1041.86 23.92 1042.45 23.92Z" fill="white"/>
<rect x="963.5" y="0.5" width="116" height="55" rx="5.5" stroke="white"/>
</svg>
